<?xml version="1.0" encoding="UTF-8" standalone="no"?>
<!DOCTYPE svg PUBLIC "-//W3C//DTD SVG 1.1//EN"
 "http://www.w3.org/Graphics/SVG/1.1/DTD/svg11.dtd">
<!-- Generated by graphviz version 13.1.0 (20250701.0955)
 -->
<!-- Pages: 1 -->
<svg width="2072pt" height="260pt"
 viewBox="0.00 0.00 2072.00 260.00" xmlns="http://www.w3.org/2000/svg" xmlns:xlink="http://www.w3.org/1999/xlink">
<g id="graph0" class="graph" transform="scale(1 1) rotate(0) translate(4 256)">
<polygon fill="white" stroke="none" points="-4,4 -4,-256 2068.3,-256 2068.3,4 -4,4"/>
<!-- [root] data.http.opentofu_org (expand) -->
<g id="node1" class="node">
<title>[root] data.http.opentofu_org (expand)</title>
<polygon fill="none" stroke="black" points="549.92,-108 410.17,-108 410.17,-72 549.92,-72 549.92,-108"/>
<text xml:space="preserve" text-anchor="middle" x="480.05" y="-84.95" font-family="Times,serif" font-size="14.00">data.http.opentofu_org</text>
</g>
<!-- [root] provider[&quot;registry.opentofu.org/hashicorp/http&quot;] -->
<g id="node7" class="node">
<title>[root] provider[&quot;registry.opentofu.org/hashicorp/http&quot;]</title>
<polygon fill="none" stroke="black" points="268.05,-36 0,-18 268.05,0 536.1,-18 268.05,-36"/>
<text xml:space="preserve" text-anchor="middle" x="268.05" y="-12.95" font-family="Times,serif" font-size="14.00">provider[&quot;registry.opentofu.org/hashicorp/http&quot;]</text>
</g>
<!-- [root] data.http.opentofu_org (expand)&#45;&gt;[root] provider[&quot;registry.opentofu.org/hashicorp/http&quot;] -->
<g id="edge3" class="edge">
<title>[root] data.http.opentofu_org (expand)&#45;&gt;[root] provider[&quot;registry.opentofu.org/hashicorp/http&quot;]</title>
<path fill="none" stroke="black" d="M427.1,-71.52C395.15,-60.97 354.53,-47.55 322.33,-36.92"/>
<polygon fill="black" stroke="black" points="323.8,-33.72 313.2,-33.91 321.6,-40.37 323.8,-33.72"/>
</g>
<!-- [root] check.health_check (report) -->
<g id="node10" class="node">
<title>[root] check.health_check (report)</title>
<ellipse fill="none" stroke="black" cx="692.05" cy="-18" rx="137.85" ry="18"/>
<text xml:space="preserve" text-anchor="middle" x="692.05" y="-12.95" font-family="Times,serif" font-size="14.00">[root] check.health_check (report)</text>
</g>
<!-- [root] data.http.opentofu_org (expand)&#45;&gt;[root] check.health_check (report) -->
<g id="edge2" class="edge">
<title>[root] data.http.opentofu_org (expand)&#45;&gt;[root] check.health_check (report)</title>
<path fill="none" stroke="black" d="M533,-71.52C563.17,-61.55 601.06,-49.04 632.3,-38.73"/>
<polygon fill="black" stroke="black" points="633.21,-42.12 641.6,-35.66 631.01,-35.47 633.21,-42.12"/>
</g>
<!-- [root] kubernetes_deployment.hello_world (expand) -->
<g id="node2" class="node">
<title>[root] kubernetes_deployment.hello_world (expand)</title>
<polygon fill="none" stroke="black" points="1224.42,-108 1009.67,-108 1009.67,-72 1224.42,-72 1224.42,-108"/>
<text xml:space="preserve" text-anchor="middle" x="1117.05" y="-84.95" font-family="Times,serif" font-size="14.00">kubernetes_deployment.hello_world</text>
</g>
<!-- [root] provider[&quot;registry.opentofu.org/hashicorp/kubernetes&quot;] -->
<g id="node8" class="node">
<title>[root] provider[&quot;registry.opentofu.org/hashicorp/kubernetes&quot;]</title>
<polygon fill="none" stroke="black" points="1549.05,-36 1244.81,-18 1549.05,0 1853.29,-18 1549.05,-36"/>
<text xml:space="preserve" text-anchor="middle" x="1549.05" y="-12.95" font-family="Times,serif" font-size="14.00">provider[&quot;registry.opentofu.org/hashicorp/kubernetes&quot;]</text>
</g>
<!-- [root] kubernetes_deployment.hello_world (expand)&#45;&gt;[root] provider[&quot;registry.opentofu.org/hashicorp/kubernetes&quot;] -->
<g id="edge4" class="edge">
<title>[root] kubernetes_deployment.hello_world (expand)&#45;&gt;[root] provider[&quot;registry.opentofu.org/hashicorp/kubernetes&quot;]</title>
<path fill="none" stroke="black" d="M1224.67,-71.56C1296.87,-59.86 1390.88,-44.63 1459.09,-33.58"/>
<polygon fill="black" stroke="black" points="1459.43,-37.07 1468.74,-32.01 1458.31,-30.16 1459.43,-37.07"/>
</g>
<!-- [root] kubernetes_ingress_v1.example (expand) -->
<g id="node3" class="node">
<title>[root] kubernetes_ingress_v1.example (expand)</title>
<polygon fill="none" stroke="black" points="1432.05,-108 1242.05,-108 1242.05,-72 1432.05,-72 1432.05,-108"/>
<text xml:space="preserve" text-anchor="middle" x="1337.05" y="-84.95" font-family="Times,serif" font-size="14.00">kubernetes_ingress_v1.example</text>
</g>
<!-- [root] kubernetes_ingress_v1.example (expand)&#45;&gt;[root] provider[&quot;registry.opentofu.org/hashicorp/kubernetes&quot;] -->
<g id="edge5" class="edge">
<title>[root] kubernetes_ingress_v1.example (expand)&#45;&gt;[root] provider[&quot;registry.opentofu.org/hashicorp/kubernetes&quot;]</title>
<path fill="none" stroke="black" d="M1390,-71.52C1421.62,-61.07 1461.73,-47.83 1493.76,-37.26"/>
<polygon fill="black" stroke="black" points="1494.46,-40.71 1502.85,-34.25 1492.26,-34.07 1494.46,-40.71"/>
</g>
<!-- [root] kubernetes_manifest.hello_world (expand) -->
<g id="node4" class="node">
<title>[root] kubernetes_manifest.hello_world (expand)</title>
<polygon fill="none" stroke="black" points="1647.8,-108 1450.3,-108 1450.3,-72 1647.8,-72 1647.8,-108"/>
<text xml:space="preserve" text-anchor="middle" x="1549.05" y="-84.95" font-family="Times,serif" font-size="14.00">kubernetes_manifest.hello_world</text>
</g>
<!-- [root] kubernetes_manifest.hello_world (expand)&#45;&gt;[root] provider[&quot;registry.opentofu.org/hashicorp/kubernetes&quot;] -->
<g id="edge6" class="edge">
<title>[root] kubernetes_manifest.hello_world (expand)&#45;&gt;[root] provider[&quot;registry.opentofu.org/hashicorp/kubernetes&quot;]</title>
<path fill="none" stroke="black" d="M1549.05,-71.7C1549.05,-64.41 1549.05,-55.73 1549.05,-47.54"/>
<polygon fill="black" stroke="black" points="1552.55,-47.62 1549.05,-37.62 1545.55,-47.62 1552.55,-47.62"/>
</g>
<!-- [root] kubernetes_namespace.example (expand) -->
<g id="node5" class="node">
<title>[root] kubernetes_namespace.example (expand)</title>
<polygon fill="none" stroke="black" points="1857.8,-108 1666.3,-108 1666.3,-72 1857.8,-72 1857.8,-108"/>
<text xml:space="preserve" text-anchor="middle" x="1762.05" y="-84.95" font-family="Times,serif" font-size="14.00">kubernetes_namespace.example</text>
</g>
<!-- [root] kubernetes_namespace.example (expand)&#45;&gt;[root] provider[&quot;registry.opentofu.org/hashicorp/kubernetes&quot;] -->
<g id="edge7" class="edge">
<title>[root] kubernetes_namespace.example (expand)&#45;&gt;[root] provider[&quot;registry.opentofu.org/hashicorp/kubernetes&quot;]</title>
<path fill="none" stroke="black" d="M1708.85,-71.52C1677.08,-61.07 1636.78,-47.83 1604.6,-37.26"/>
<polygon fill="black" stroke="black" points="1606.05,-34.05 1595.46,-34.25 1603.86,-40.7 1606.05,-34.05"/>
</g>
<!-- [root] kubernetes_service.hello_world (expand) -->
<g id="node6" class="node">
<title>[root] kubernetes_service.hello_world (expand)</title>
<polygon fill="none" stroke="black" points="2064.3,-108 1875.8,-108 1875.8,-72 2064.3,-72 2064.3,-108"/>
<text xml:space="preserve" text-anchor="middle" x="1970.05" y="-84.95" font-family="Times,serif" font-size="14.00">kubernetes_service.hello_world</text>
</g>
<!-- [root] kubernetes_service.hello_world (expand)&#45;&gt;[root] provider[&quot;registry.opentofu.org/hashicorp/kubernetes&quot;] -->
<g id="edge8" class="edge">
<title>[root] kubernetes_service.hello_world (expand)&#45;&gt;[root] provider[&quot;registry.opentofu.org/hashicorp/kubernetes&quot;]</title>
<path fill="none" stroke="black" d="M1875.31,-73.25C1804.07,-61.4 1707.17,-45.29 1637.51,-33.71"/>
<polygon fill="black" stroke="black" points="1638.5,-30.32 1628.06,-32.14 1637.35,-37.23 1638.5,-30.32"/>
</g>
<!-- [root] check.health_check (expand) -->
<g id="node9" class="node">
<title>[root] check.health_check (expand)</title>
<ellipse fill="none" stroke="black" cx="200.05" cy="-162" rx="142.45" ry="18"/>
<text xml:space="preserve" text-anchor="middle" x="200.05" y="-156.95" font-family="Times,serif" font-size="14.00">[root] check.health_check (expand)</text>
</g>
<!-- [root] check.health_check (expand)&#45;&gt;[root] data.http.opentofu_org (expand) -->
<g id="edge1" class="edge">
<title>[root] check.health_check (expand)&#45;&gt;[root] data.http.opentofu_org (expand)</title>
<path fill="none" stroke="black" d="M262.54,-145.38C302.79,-135.31 355.53,-122.13 399,-111.26"/>
<polygon fill="black" stroke="black" points="399.8,-114.67 408.66,-108.85 398.11,-107.88 399.8,-114.67"/>
</g>
<!-- [root] output.madata (expand) -->
<g id="node11" class="node">
<title>[root] output.madata (expand)</title>
<ellipse fill="none" stroke="black" cx="983.05" cy="-162" rx="123" ry="18"/>
<text xml:space="preserve" text-anchor="middle" x="983.05" y="-156.95" font-family="Times,serif" font-size="14.00">[root] output.madata (expand)</text>
</g>
<!-- [root] local.mylocvar (expand) -->
<g id="node12" class="node">
<title>[root] local.mylocvar (expand)</title>
<ellipse fill="none" stroke="black" cx="866.05" cy="-90" rx="125.56" ry="18"/>
<text xml:space="preserve" text-anchor="middle" x="866.05" y="-84.95" font-family="Times,serif" font-size="14.00">[root] local.mylocvar (expand)</text>
</g>
<!-- [root] output.madata (expand)&#45;&gt;[root] local.mylocvar (expand) -->
<g id="edge9" class="edge">
<title>[root] output.madata (expand)&#45;&gt;[root] local.mylocvar (expand)</title>
<path fill="none" stroke="black" d="M954.73,-144.05C939.35,-134.85 920.14,-123.36 903.54,-113.43"/>
<polygon fill="black" stroke="black" points="905.79,-110.7 895.41,-108.57 902.19,-116.7 905.79,-110.7"/>
</g>
<!-- [root] provider[&quot;registry.opentofu.org/hashicorp/http&quot;] (close) -->
<g id="node13" class="node">
<title>[root] provider[&quot;registry.opentofu.org/hashicorp/http&quot;] (close)</title>
<ellipse fill="none" stroke="black" cx="601.05" cy="-162" rx="240.72" ry="18"/>
<text xml:space="preserve" text-anchor="middle" x="601.05" y="-156.95" font-family="Times,serif" font-size="14.00">[root] provider[&quot;registry.opentofu.org/hashicorp/http&quot;] (close)</text>
</g>
<!-- [root] provider[&quot;registry.opentofu.org/hashicorp/http&quot;] (close)&#45;&gt;[root] data.http.opentofu_org (expand) -->
<g id="edge10" class="edge">
<title>[root] provider[&quot;registry.opentofu.org/hashicorp/http&quot;] (close)&#45;&gt;[root] data.http.opentofu_org (expand)</title>
<path fill="none" stroke="black" d="M571.14,-143.7C555.58,-134.69 536.35,-123.57 519.58,-113.87"/>
<polygon fill="black" stroke="black" points="521.75,-111.08 511.34,-109.1 518.25,-117.14 521.75,-111.08"/>
</g>
<!-- [root] provider[&quot;registry.opentofu.org/hashicorp/kubernetes&quot;] (close) -->
<g id="node14" class="node">
<title>[root] provider[&quot;registry.opentofu.org/hashicorp/kubernetes&quot;] (close)</title>
<ellipse fill="none" stroke="black" cx="1443.05" cy="-162" rx="266.31" ry="18"/>
<text xml:space="preserve" text-anchor="middle" x="1443.05" y="-156.95" font-family="Times,serif" font-size="14.00">[root] provider[&quot;registry.opentofu.org/hashicorp/kubernetes&quot;] (close)</text>
</g>
<!-- [root] provider[&quot;registry.opentofu.org/hashicorp/kubernetes&quot;] (close)&#45;&gt;[root] kubernetes_deployment.hello_world (expand) -->
<g id="edge11" class="edge">
<title>[root] provider[&quot;registry.opentofu.org/hashicorp/kubernetes&quot;] (close)&#45;&gt;[root] kubernetes_deployment.hello_world (expand)</title>
<path fill="none" stroke="black" d="M1365.38,-144.32C1318.54,-134.27 1258.62,-121.4 1209.37,-110.82"/>
<polygon fill="black" stroke="black" points="1210.38,-107.46 1199.87,-108.78 1208.91,-114.3 1210.38,-107.46"/>
</g>
<!-- [root] provider[&quot;registry.opentofu.org/hashicorp/kubernetes&quot;] (close)&#45;&gt;[root] kubernetes_ingress_v1.example (expand) -->
<g id="edge12" class="edge">
<title>[root] provider[&quot;registry.opentofu.org/hashicorp/kubernetes&quot;] (close)&#45;&gt;[root] kubernetes_ingress_v1.example (expand)</title>
<path fill="none" stroke="black" d="M1416.85,-143.7C1403.6,-134.95 1387.31,-124.19 1372.92,-114.69"/>
<polygon fill="black" stroke="black" points="1374.85,-111.77 1364.58,-109.18 1371,-117.61 1374.85,-111.77"/>
</g>
<!-- [root] provider[&quot;registry.opentofu.org/hashicorp/kubernetes&quot;] (close)&#45;&gt;[root] kubernetes_manifest.hello_world (expand) -->
<g id="edge13" class="edge">
<title>[root] provider[&quot;registry.opentofu.org/hashicorp/kubernetes&quot;] (close)&#45;&gt;[root] kubernetes_manifest.hello_world (expand)</title>
<path fill="none" stroke="black" d="M1469.25,-143.7C1482.5,-134.95 1498.78,-124.19 1513.18,-114.69"/>
<polygon fill="black" stroke="black" points="1515.1,-117.61 1521.52,-109.18 1511.24,-111.77 1515.1,-117.61"/>
</g>
<!-- [root] provider[&quot;registry.opentofu.org/hashicorp/kubernetes&quot;] (close)&#45;&gt;[root] kubernetes_namespace.example (expand) -->
<g id="edge14" class="edge">
<title>[root] provider[&quot;registry.opentofu.org/hashicorp/kubernetes&quot;] (close)&#45;&gt;[root] kubernetes_namespace.example (expand)</title>
<path fill="none" stroke="black" d="M1519.05,-144.32C1564.79,-134.29 1623.27,-121.45 1671.41,-110.89"/>
<polygon fill="black" stroke="black" points="1671.96,-114.35 1680.98,-108.79 1670.46,-107.51 1671.96,-114.35"/>
</g>
<!-- [root] provider[&quot;registry.opentofu.org/hashicorp/kubernetes&quot;] (close)&#45;&gt;[root] kubernetes_service.hello_world (expand) -->
<g id="edge15" class="edge">
<title>[root] provider[&quot;registry.opentofu.org/hashicorp/kubernetes&quot;] (close)&#45;&gt;[root] kubernetes_service.hello_world (expand)</title>
<path fill="none" stroke="black" d="M1574.54,-145.91C1655.41,-136.31 1761.46,-123.15 1864.27,-108.37"/>
<polygon fill="black" stroke="black" points="1864.6,-111.86 1874,-106.97 1863.6,-104.94 1864.6,-111.86"/>
</g>
<!-- [root] root -->
<g id="node15" class="node">
<title>[root] root</title>
<ellipse fill="none" stroke="black" cx="792.05" cy="-234" rx="49.3" ry="18"/>
<text xml:space="preserve" text-anchor="middle" x="792.05" y="-228.95" font-family="Times,serif" font-size="14.00">[root] root</text>
</g>
<!-- [root] root&#45;&gt;[root] check.health_check (expand) -->
<g id="edge16" class="edge">
<title>[root] root&#45;&gt;[root] check.health_check (expand)</title>
<path fill="none" stroke="black" d="M745.6,-227.51C653.1,-216.57 443.55,-191.79 312.75,-176.33"/>
<polygon fill="black" stroke="black" points="313.36,-172.87 303.02,-175.18 312.54,-179.83 313.36,-172.87"/>
</g>
<!-- [root] root&#45;&gt;[root] output.madata (expand) -->
<g id="edge17" class="edge">
<title>[root] root&#45;&gt;[root] output.madata (expand)</title>
<path fill="none" stroke="black" d="M825.76,-220.65C854.17,-210.23 895.37,-195.14 928.47,-183"/>
<polygon fill="black" stroke="black" points="929.3,-186.43 937.49,-179.7 926.89,-179.85 929.3,-186.43"/>
</g>
<!-- [root] root&#45;&gt;[root] provider[&quot;registry.opentofu.org/hashicorp/http&quot;] (close) -->
<g id="edge18" class="edge">
<title>[root] root&#45;&gt;[root] provider[&quot;registry.opentofu.org/hashicorp/http&quot;] (close)</title>
<path fill="none" stroke="black" d="M758.34,-220.65C730.73,-210.53 691.03,-195.98 658.43,-184.03"/>
<polygon fill="black" stroke="black" points="659.69,-180.76 649.09,-180.61 657.28,-187.34 659.69,-180.76"/>
</g>
<!-- [root] root&#45;&gt;[root] provider[&quot;registry.opentofu.org/hashicorp/kubernetes&quot;] (close) -->
<g id="edge19" class="edge">
<title>[root] root&#45;&gt;[root] provider[&quot;registry.opentofu.org/hashicorp/kubernetes&quot;] (close)</title>
<path fill="none" stroke="black" d="M838.87,-227.97C932.7,-217.88 1147.33,-194.8 1293.79,-179.05"/>
<polygon fill="black" stroke="black" points="1294.02,-182.54 1303.59,-178 1293.28,-175.58 1294.02,-182.54"/>
</g>
</g>
</svg>
